# AST/ASF file generated using VICON BodyLanguage
# -----------------------------------------------
:version 1.10
:name VICON
:units
  mass 1.0
  length 0.45
  angle deg
:documentation
   .ast/.asf automatically generated from VICON data using
   VICON BodyBuilder and BodyLanguage model FoxedUp or BRILLIANT.MOD
:root
   order TX TY TZ RX RY RZ
   axis XYZ
   position 0 0 0  
   orientation 0 0 0 
:bonedata
  begin
     id 1 
     name lhipjoint
     direction 0.645893 -0.654526 0.392961 
     length 2.38111 
     axis 0 0 0  XYZ
  end
  begin
     id 2 
     name lfemur
     direction 0.34202 -0.939693 0  
     length 6.6822  
     axis 0 0 20  XYZ
    dof rx ry rz
    limits (-160.0 20.0)
           (-70.0 70.0)
           (-60.0 70.0)
  end
  begin
     id 3 
     name ltibia
     direction 0.34202 -0.939693 0   
     length 6.93904   
     axis 0 0 20   XYZ
    dof rx
    limits (-10.0 170.0)
  end
  begin
     id 4 
     name lfoot
     direction 0.0694967 -0.190941 0.979138   
     length 2.13616   
     axis -90 7.62852e-016 20   XYZ
    dof rx rz
    limits (-45.0 90.0)
           (-70.0 20.0)
  end
  begin
     id 5 
     name ltoes
     direction 1.535e-011 -4.2202e-011 1   
     length 1.07536   
     axis -90 7.62852e-016 20   XYZ
    dof rx
    limits (-90.0 20.0)
  end
  begin
     id 6 
     name rhipjoint
     direction -0.700219 -0.612087 0.367481   
     length 2.54621  
     axis 0 0 0  XYZ 
  end
  begin
     id 7 
     name rfemur
     direction -0.34202 -0.939693 0   
     length 6.55353   
     axis 0 0 -20   XYZ
    dof rx ry rz
    limits (-160.0 20.0)
           (-70.0 70.0)
           (-70.0 60.0)
  end
  begin
     id 8 
     name rtibia
     direction -0.34202 -0.939693 0   
     length 6.8736   
     axis 0 0 -20   XYZ
    dof rx
    limits (-10.0 170.0)
 end
 begin
     id 9 
     name rfoot
     direction -0.0679995 -0.186827 0.980037   
     length 2.1218  
     axis -90 -7.62852e-016 -20   XYZ
    dof rx rz
    limits (-45.0 90.0)
           (-20.0 70.0)
  end
  begin
     id 10 
     name rtoes
     direction -1.53589e-011 -4.21772e-011 1   
     length 1.06864   
     axis -90 -7.62852e-016 -20   XYZ
    dof rx
    limits (-90.0 20.0)
  end
  begin
     id 11 
     name lowerback
     direction -0.0416607 0.996347 -0.0745409   
     length 2.12205   
     axis 0 0 0   XYZ
    dof rx ry rz
    limits (-20.0 45.0)
           (-30.0 30.0)
           (-30.0 30.0)
  end
  begin
     id 12 
     name upperback
     direction -0.000153993 0.999276 -0.0380568   
     length 2.12759   
     axis 0 0 0   XYZ
    dof rx ry rz
    limits (-20.0 45.0)
           (-30.0 30.0)
           (-30.0 30.0)
  end
  begin
     id 13 
     name thorax
     direction 0.0187671 0.999821 -0.00241421   
     length 2.13704   
     axis 0 0 0   XYZ
    dof rx ry rz
    limits (-20.0 45.0)
           (-30.0 30.0)
           (-30.0 30.0)
  end
  begin
     id 14 
     name lowerneck
     direction 0.0268157 0.964865 0.261374   
     length 1.65253   
     axis 0 0 0   XYZ
    dof rx ry rz
    limits (-20.0 45.0)
           (-30.0 30.0)
           (-30.0 30.0)
  end
  begin
     id 15 
     name upperneck
     direction 0.00263774 0.939908 -0.341418   
     length 1.72375   
     axis 0 0 0   XYZ
    dof rx ry rz
    limits (-20.0 45.0)
           (-30.0 30.0)
           (-30.0 30.0)
  end
  begin
     id 16
     name head
     direction -0.00526001 0.989001 -0.147818  
     length 1.74878  
     axis 0 0 0   XYZ
    dof rx ry rz
    limits (-20.0 45.0)
           (-30.0 30.0)
           (-30.0 30.0)
  end
  begin
     id 17 
     name lclavicle
     direction 0.881214 0.461162 -0.103884  
     length 3.25108  
     axis 0 0 0   XYZ
    dof ry rz
    limits (-20.0 10.0)
           (0.0 20.0)
  end
  begin
     id 18 
     name lhumerus
     direction 1 -4.4899e-011 3.38092e-027   
     length 4.87408   
     axis 180 -30 -90   XYZ
    dof rx ry rz
    limits (-60.0 90.0)
           (-90.0 90.0)
           (-90.0 90.0)
  end
  begin
     id 19
     name lradius
     direction 1 -4.48931e-011 9.96288e-027   
     length 2.76729   
     axis 180 -30 -90   XYZ
    dof rx
    limits (-10.0 170.0)
  end
  begin
     id 20
     name lwrist
     direction 1 -4.4896e-011 1.50617e-026   
     length 1.38364   
     axis -9.31234e-015 90 90   XYZ
    dof ry
    limits (-180.0 0.0)
 end
  begin
     id 21 
     name lhand
     direction 1 -4.49038e-011 3.01286e-026   
     length 0.98922   
     axis -1.92217e-014 90 90   XYZ
    dof rx rz
    limits (-90.0 90.0)
           (-45.0 45.0)
  end
  begin
     id 22 
     name lfingers
     direction 1 -4.49051e-011 6.02588e-026   
     length 0.797535   
     axis -3.84436e-014 90 90   XYZ
    dof rx
    limits (0.0 90.0)
  end
  begin
     id 23
     name lthumb
     direction 0.707107 -6.34901e-011 0.707107   
     length 1.14511   
     axis -90 45 2.19363e-014   XYZ
    dof rx rz
    limits (-45.0 45.0)
           (-45.0 45.0)
  end
  begin
     id 24 
     name rclavicle
     direction -0.893894 0.441652 -0.0767889   
     length 3.29361  
     axis 0 0 0   XYZ 
    dof ry rz
    limits (-10.0 20.0)
           (-20.0 0.0)
  end
  begin
     id 25 
     name rhumerus
     direction -1 -4.48945e-011 8.0491e-028  
     length 4.71404   
     axis 180 30 90   XYZ
    dof rx ry rz
    limits (-90.0 60.0)
           (-90.0 90.0)
           (-90.0 90.0)
  end
  begin
     id 26 
     name rradius
     direction -1 -4.48986e-011 9.27795e-027   
     length 2.83468   
     axis 180 30 90   XYZ
    dof rx
    limits (-10.0 170.0)
  end
  begin
     id 27 
     name rwrist
     direction -1 -4.49029e-011 1.5064e-026   
     length 1.41734   
     axis -9.31234e-015 -90 -90   XYZ
    dof ry
    limits (-180.0 0.0)
  end
  begin
     id 28
     name rhand
     direction -1 -4.48857e-011 3.01165e-026   
     length 0.868195   
     axis -1.92217e-014 -90 -90   XYZ
    dof rx rz
    limits (-90.0 90.0)
           (-45.0 45.0)
  end
  begin
     id 29
     name rfingers
     direction -1 -4.49048e-011 6.02585e-026   
     length 0.699961   
     axis -3.84436e-014 -90 -90   XYZ
    dof rx
    limits (0.0 90.0)
  end
  begin
     id 30
     name rthumb
     direction -0.707107 -6.34854e-011 0.707107   
     length 1.00501   
     axis -90 -45 -2.19363e-014   XYZ
    dof rx rz
    limits (-45.0 45.0)
           (-45.0 45.0)
  end
:hierarchy
  begin
    root lhipjoint rhipjoint lowerback
    lhipjoint lfemur
    lfemur ltibia
    ltibia lfoot
    lfoot ltoes
    rhipjoint rfemur
    rfemur rtibia
    rtibia rfoot
    rfoot rtoes
    lowerback upperback
    upperback thorax
    thorax lowerneck lclavicle rclavicle
    lowerneck upperneck
    upperneck head
    lclavicle lhumerus
    lhumerus lradius
    lradius lwrist
    lwrist lhand lthumb
    lhand lfingers
    rclavicle rhumerus
    rhumerus rradius
    rradius rwrist
    rwrist rhand rthumb
    rhand rfingers
  end

#!OML:ASF H:\ManfredObstacles\Project 1\Capture day 2\Session 1\male.ASF
:FULLY-SPECIFIED
:DEGREES
32
root 1.58185 16.5258 14.5002 -167.065 -2.27577 173.503
lowerback -2.21208 -6.36614 -8.22989
upperback 0.15878 -8.32325 -0.142269
thorax 2.53954 -4.2783 3.95781
lowerneck -32.4209 4.73652 8.08817
upperneck 36.1276 6.66018 -5.59159
head 20.1451 3.27645 -2.26902
rclavicle 3.8117e-014 3.57812e-015
rhumerus -78.1919 9.45682 -81.9646
rradius 95.3551
rwrist -0.493573
rhand -13.2394 -1.38731
rfingers 7.12502
rthumb 12.8624 -30.971
lclavicle 3.8117e-014 3.57812e-015
lhumerus -41.5549 -32.9905 98.4029
lradius 114.161
lwrist -20.663
lhand -15.3894 4.42648
lfingers 7.12502
lthumb 10.7892 34.1294
rfemur -42.9514 1.55852 13.3684
rtibia 44.0817
rfoot 1.41273 -21.6293
rtoes -20.1053
lfemur 7.81646 -4.043 -28.2729
ltibia 14.8532
lfoot 28.2169 1.8552
ltoes -3.25604
33
root 1.59413 16.5977 14.1176 -166.639 -2.21937 173.672
lowerback -2.76982 -6.59485 -7.87261
upperback -0.00252922 -8.58817 0.060059
thorax 2.69733 -4.40404 3.89338
lowerneck -32.1999 5.0172 8.44878
upperneck 36.0343 7.13196 -6.05767
head 20.1384 3.44101 -2.43815
rclavicle -8.17999e-014 -3.57812e-015
rhumerus -78.5463 9.64558 -81.4757
rradius 95.8286
rwrist -0.55069
rhand -13.0852 -1.35202
rfingers 7.12502
rthumb 13.0111 -30.9263
lclavicle -8.17999e-014 -3.57812e-015
lhumerus -42.0299 -33.4448 98.0952
lradius 114.701
lwrist -20.67
lhand -14.899 4.12102
lfingers 7.12502
lthumb 11.2621 33.7987
rfemur -42.861 2.46039 12.93
rtibia 40.0445
rfoot 2.2988 -21.0925
rtoes -20.6375
lfemur 8.96004 -3.87924 -28.0485
ltibia 13.3364
lfoot 31.2788 1.10766
ltoes -1.20636
34
root 1.6068 16.6583 13.7348 -166.243 -2.18294 173.811
lowerback -3.33016 -6.79279 -7.53586
upperback -0.143546 -8.81746 0.235398
thorax 2.87012 -4.51396 3.81086
lowerneck -32.0429 5.26827 8.78849
upperneck 35.9875 7.5465 -6.46832
head 20.1714 3.5904 -2.59135
rclavicle -4.16205e-014 6.36111e-015
rhumerus -78.8015 9.82978 -81.0409
rradius 96.2294
rwrist -0.516774
rhand -12.9256 -1.26642
rfingers 7.12502
rthumb 13.1649 -30.8308
lclavicle -4.16205e-014 6.36111e-015
lhumerus -42.5276 -33.8533 97.8036
lradius 115.211
lwrist -20.6246
lhand -14.3376 3.76413
lfingers 7.12502
lthumb 11.8036 33.4115
rfemur -42.7114 3.31582 12.4545
rtibia 36.3256
rfoot 3.29635 -20.8059
rtoes -22.5228
lfemur 9.82529 -3.77095 -27.8706
ltibia 12.4371
lfoot 34.0788 0.585251
ltoes 0.813253
35
root 1.62044 16.7066 13.3525 -165.898 -2.15941 173.902
lowerback -3.86685 -6.95499 -7.23856
upperback -0.253277 -9.00459 0.367174
thorax 3.05438 -4.60485 3.70734
lowerneck -32.1143 5.5719 9.23259
upperneck 36.0045 7.9568 -6.87578
head 20.3155 3.74744 -2.76284
rclavicle 9.95911e-014 8.74653e-015
rhumerus -78.9537 9.99507 -80.676
rradius 96.5708
rwrist -0.421212
rhand -12.7357 -1.15744
rfingers 7.12502
rthumb 13.348 -30.7099
lclavicle 9.95911e-014 8.74653e-015
lhumerus -43.0228 -34.2213 97.5293
lradius 115.673
lwrist -20.5448
lhand -13.7539 3.39664
lfingers 7.12502
lthumb 12.3664 33.0109
rfemur -42.5243 4.05952 11.9824
rtibia 33.0643
rfoot 4.34946 -21.0018
rtoes -26.4408
lfemur 10.3439 -3.74001 -27.7643
ltibia 12.3198
lfoot 36.5191 0.23983
ltoes 2.58037
36
root 1.63591 16.7416 12.9719 -165.643 -2.14585 173.937
lowerback -4.32752 -7.08707 -7.01959
upperback -0.331018 -9.15742 0.459325
thorax 3.22978 -4.68033 3.61423
lowerneck -32.2274 5.88284 9.71182
upperneck 36.0184 8.3383 -7.26042
head 20.4723 3.90001 -2.93691
rclavicle 3.26255e-014 6.95746e-016
rhumerus -78.9968 10.1597 -80.3896
rradius 96.8417
rwrist -0.271332
rhand -12.5106 -1.04676
rfingers 7.12502
rthumb 13.5649 -30.5849
lclavicle 3.26255e-014 6.95746e-016
lhumerus -43.5391 -34.494 97.2942
lradius 116.08
lwrist -20.4705
lhand -13.1529 2.99643
lfingers 7.12502
lthumb 12.9458 32.5748
rfemur -42.299 4.64255 11.567
rtibia 30.3921
rfoot 5.52144 -21.6344
rtoes -31.3258
lfemur 10.5271 -3.81266 -27.7419
ltibia 13.0217
lfoot 38.5271 0.0221935
ltoes 4.052
37
root 1.6532 16.762 12.5935 -165.503 -2.12908 173.909
lowerback -4.67834 -7.18003 -6.88491
upperback -0.373053 -9.26342 0.501944
thorax 3.37985 -4.73375 3.53106
lowerneck -32.4902 6.1931 10.1772
upperneck 36.0884 8.67682 -7.57297
head 20.6973 4.04091 -3.08494
rclavicle 7.04567e-014 -1.88845e-015
rhumerus -78.934 10.303 -80.183
rradius 97.0389
rwrist -0.106783
rhand -12.231 -0.912202
rfingers 7.12502
rthumb 13.8344 -30.4321
lclavicle 7.04567e-014 -1.88845e-015
lhumerus -44.0994 -34.6768 97.1381
lradius 116.42
lwrist -20.4199
lhand -12.6005 2.59947
lfingers 7.12502
lthumb 13.4783 32.1433
rfemur -42.0358 5.0075 11.2648
rtibia 28.406
rfoot 6.97905 -22.5384
rtoes -36.0955
lfemur 10.4391 -3.94748 -27.8092
ltibia 14.4625
lfoot 39.9833 -0.223567
ltoes 5.09857
38
root 1.67225 16.7671 12.2176 -165.497 -2.08727 173.823
lowerback -4.91408 -7.22577 -6.83916
upperback -0.365849 -9.30902 0.494549
thorax 3.5155 -4.75889 3.46188
lowerneck -32.7294 6.45048 10.5711
upperneck 36.1517 8.93472 -7.80413
head 20.8926 4.15357 -3.20142
rclavicle 1.32664e-013 -2.34069e-014
rhumerus -78.7318 10.4105 -80.0612
rradius 97.1496
rwrist 0.0316334
rhand -11.9107 -0.791335
rfingers 7.12502
rthumb 14.1431 -30.29
lclavicle 1.32664e-013 -2.34069e-014
lhumerus -44.6829 -34.7502 97.0552
lradius 116.689
lwrist -20.3739
lhand -12.0663 2.15685
lfingers 7.12502
lthumb 13.9931 31.6659
rfemur -41.7313 5.15752 11.1052
rtibia 27.1487
rfoot 8.62829 -23.372
rtoes -39.7094
lfemur 10.1607 -4.12232 -27.9681
ltibia 16.5179
lfoot 40.7804 -0.531184
ltoes 5.71484
39
root 1.69284 16.7565 11.8447 -165.628 -2.01733 173.701
lowerback -5.01456 -7.22566 -6.8693
upperback -0.322501 -9.29769 0.450355
thorax 3.61278 -4.75661 3.41722
lowerneck -32.9479 6.64056 10.8536
upperneck 36.2192 9.114 -7.94897
head 21.0596 4.23442 -3.27626
rclavicle -1.51325e-014 -4.62174e-015
rhumerus -78.4089 10.5047 -80.0259
rradius 97.1727
rwrist 0.161587
rhand -11.569 -0.688884
rfingers 7.12502
rthumb 14.4723 -30.1642
lclavicle -1.51325e-014 -4.62174e-015
lhumerus -45.3308 -34.6956 97.0863
lradius 116.891
lwrist -20.2699
lhand -11.5678 1.7082
lfingers 7.12502
lthumb 14.4734 31.1834
rfemur -41.3669 5.13314 11.0967
rtibia 26.586
rfoot 10.2467 -23.9389
rtoes -41.8989
lfemur 9.7553 -4.28851 -28.1897
ltibia 19.0713
lfoot 40.8728 -0.904579
ltoes 6.08409
40
root 1.71486 16.7289 11.475 -165.891 -1.90488 173.565
lowerback -4.99004 -7.17007 -6.95675
upperback -0.249476 -9.21693 0.381321
thorax 3.66834 -4.72039 3.40035
lowerneck -33.1456 6.70664 10.9377
upperneck 36.3683 9.18481 -7.97001
head 21.2312 4.27079 -3.28503
rclavicle 2.53823e-014 1.65488e-014
rhumerus -77.9663 10.5898 -80.0672
rradius 97.0935
rwrist 0.288518
rhand -11.241 -0.596258
rfingers 7.12502
rthumb 14.7883 -30.0486
lclavicle 2.53823e-014 1.65488e-014
lhumerus -46.0639 -34.5028 97.2476
lradius 117.017
lwrist -20.1476
lhand -11.1336 1.24247
lfingers 7.12502
lthumb 14.8918 30.6872
rfemur -40.9274 5.0089 11.2201
rtibia 26.6341
rfoot 11.6726 -24.1802
rtoes -42.8922
lfemur 9.27303 -4.39899 -28.4459
ltibia 22.0183
lfoot 40.2837 -1.27697
ltoes 6.2289
41
root 1.7379 16.6841 11.1087 -166.265 -1.73857 173.455
lowerback -4.84946 -7.05031 -7.06477
upperback -0.158213 -9.05745 0.303259
thorax 3.67072 -4.64464 3.40856
lowerneck -33.2585 6.60954 10.7488
upperneck 36.5615 9.11806 -7.83647
head 21.3509 4.24605 -3.20565
rclavicle -1.33186e-014 6.70898e-015
rhumerus -77.4198 10.6785 -80.185
rradius 96.9195
rwrist 0.389701
rhand -10.9748 -0.520808
rfingers 7.12502
rthumb 15.0448 -29.9542
lclavicle -1.33186e-014 6.70898e-015
lhumerus -46.8702 -34.1977 97.5355
lradius 117.05
lwrist -20.0778
lhand -10.7973 0.840742
lfingers 7.12502
lthumb 15.2158 30.2612
rfemur -40.4 4.81366 11.4968
rtibia 27.1781
rfoot 12.4078 -23.8943
rtoes -43.0026
lfemur 8.72575 -4.41337 -28.6908
ltibia 25.2803
lfoot 39.1312 -1.54012
ltoes 6.20907
42
root 1.76165 16.623 10.7455 -166.737 -1.51426 173.391
lowerback -4.61359 -6.86883 -7.17357
upperback -0.0499775 -8.82256 0.22898
thorax 3.62926 -4.53083 3.44045
lowerneck -33.2724 6.39678 10.3926
upperneck 36.751 8.95479 -7.63095
head 21.407 4.17668 -3.08651
rclavicle -1.3623e-014 1.27471e-014
rhumerus -76.7539 10.7891 -80.3707
rradius 96.6196
rwrist 0.531099
rhand -10.7987 -0.4192
rfingers 7.12502
rthumb 15.2144 -29.8398
lclavicle -1.3623e-014 1.27471e-014
lhumerus -47.7483 -33.7656 97.9255
lradius 116.989
lwrist -20.0929
lhand -10.5698 0.496671
lfingers 7.12502
lthumb 15.4349 29.9004
rfemur -39.7625 4.55996 11.9315
rtibia 28.1175
rfoot 11.9598 -23.009
rtoes -42.8265
lfemur 8.13178 -4.30464 -28.8885
ltibia 28.7797
lfoot 37.6308 -1.58957
ltoes 6.12196
43
root 1.78557 16.5475 10.3856 -167.279 -1.21964 173.402
lowerback -4.28735 -6.62348 -7.24604
upperback 0.0590881 -8.51196 0.16916
thorax 3.52553 -4.37725 3.48628
lowerneck -33.1823 6.09551 9.9178
upperneck 36.9366 8.71573 -7.36847
head 21.4081 4.07529 -2.9378
rclavicle 3.66913e-014 1.38404e-014
rhumerus -75.9819 10.936 -80.6226
rradius 96.2003
rwrist 0.676643
rhand -10.7359 -0.271441
rfingers 7.12502
rthumb 15.2749 -29.6874
lclavicle 3.66913e-014 1.38404e-014
lhumerus -48.6853 -33.2186 98.4037
lradius 116.826
lwrist -20.1847
lhand -10.4706 0.276057
lfingers 7.12502
lthumb 15.5304 29.6724
rfemur -39.0281 4.26778 12.5235
rtibia 29.3757
rfoot 10.5495 -21.6404
rtoes -42.0786
lfemur 7.48469 -4.04128 -28.9992
ltibia 32.4425
lfoot 35.9987 -1.4297
ltoes 5.80451
44
root 1.80972 16.4599 10.0296 -167.876 -0.863992 173.499
lowerback -3.88509 -6.31817 -7.26547
upperback 0.178552 -8.12994 0.128515
thorax 3.3764 -4.18616 3.53658
lowerneck -32.9889 5.73311 9.37788
upperneck 37.0881 8.41666 -7.08251
head 21.3457 3.94851 -2.78121
rclavicle 1.08861e-013 6.59717e-015
rhumerus -75.0895 11.1175 -80.9466
rradius 95.6732
rwrist 0.846781
rhand -10.8089 -0.124085
rfingers 7.12502
rthumb 15.2045 -29.5454
lclavicle 1.08861e-013 6.59717e-015
lhumerus -49.6174 -32.5704 98.8953
lradius 116.549
lwrist -20.3823
lhand -10.4761 0.164811
lfingers 7.12502
lthumb 15.5251 29.5616
rfemur -38.1848 3.96862 13.2534
rtibia 30.9003
rfoot 8.35211 -19.8275
rtoes -40.0653
lfemur 6.79284 -3.64102 -28.9921
ltibia 36.1964
lfoot 34.4452 -0.994245
ltoes 5.42341
